@startuml
'https://plantuml.com/class-diagram



class Game
class Player


package fr.isep.game7WonderArch.domain {
enum Wonders {
Alexandrie
Olympie
Rhodes
Gizeh
Halicarnasse
Babylone
Ephese
}
abstract Wonder
abstract Card
enum CardBack {
Alexandrie
Babylone
Ephese
Gizeh
Halicarnasse
Olympie
Rhodes
CentralDeck
}
enum CardCategory{
PoliticCard
ProgressCard
MaterialCard
WarCard
}
class CardDecks
enum CardType
enum Material{
Wood
Brick
Glass
Gold
Stone
Paper
}
enum ProgressToken {
Urbanisme
ArtsAndCrafts
Jewelry
Science
Propaganda
Architecture
Economy
Ingeniery
Tactic
Decoration
Politic
Strategy
Education
Culture
}
class ProgressTokens
enum ScienceCategory {
Law
Mechanic
Architect
}
class PoliticCard
class ProgressCard
class MaterialCard
class WarCard

class Alexandrie
class Babylone
class Ephese
class Gizeh
class Halicarnasse
class Olympie
class Rhodes


Card <|-- ProgressCard
Card <|-- MaterialCard
Card <|-- PoliticCard
Card <|-- WarCard
Wonder --- Wonders
Card --- CardBack
Card --- CardCategory
CardCategory -- CardType

Wonder <|-- Alexandrie
Wonder <|-- Babylone
Wonder <|-- Ephese
Wonder <|-- Gizeh
Wonder <|-- Halicarnasse
Wonder <|-- Olympie
Wonder <|-- Rhodes

Player *-- Card
Player *---- Wonder
Game *--- ConflictTokens
}
Game *-- Player
Game *-- Card
Game *-- ProgressTokens
Player *-- ProgressTokens
CardDecks *--- Card
Player *-- CardDecks
Game *-- CardDecks
ProgressTokens --- ProgressToken
MaterialCard -- Material
ProgressCard -- ScienceCategory

class ConflictTokens



package com.example.game7wondersarchitect {
class HelloApplication
class ChooseYourWonderController
class NumberOfPlayerController
class PlayerNameController
class PlayNowController

Game -- PlayNowController
Player -- PlayerNameController
Game --- NumberOfPlayerController
Player -- ChooseYourWonderController
HelloApplication -- Game


}




@enduml